<?xml version="1.0" encoding="UTF-8"?>
<!DOCTYPE svg PUBLIC "-//W3C//DTD SVG 1.1//EN" "http://www.w3.org/Graphics/SVG/1.1/DTD/svg11.dtd">
<svg xmlns="http://www.w3.org/2000/svg" version="1.1" width="22px" height="22px" style="shape-rendering:geometricPrecision; text-rendering:geometricPrecision; image-rendering:optimizeQuality; fill-rule:evenodd; clip-rule:evenodd" xmlns:xlink="http://www.w3.org/1999/xlink">
<g><path style="opacity:0.681" fill="#000000" d="M 12.5,-0.5 C 14.5,-0.5 16.5,-0.5 18.5,-0.5C 21.2211,2.60192 20.8877,5.43525 17.5,8C 14.3478,8.42391 12.0144,7.25725 10.5,4.5C 11.1667,2.83333 11.8333,1.16667 12.5,-0.5 Z M 14.5,1.5 C 17.8606,2.20318 18.1939,3.53651 15.5,5.5C 13.3576,4.56289 13.0243,3.22955 14.5,1.5 Z"/></g>
<g><path style="opacity:0.658" fill="#000000" d="M 10.5,4.5 C 11.6555,11.1584 9.15552,13.1584 3,10.5C 0.778113,7.49042 1.27811,4.99042 4.5,3C 6.84006,2.25164 8.84006,2.75164 10.5,4.5 Z M 5.5,5.5 C 9.12321,6.41137 9.28988,7.74471 6,9.5C 4.23173,8.31814 4.06507,6.9848 5.5,5.5 Z"/></g>
<g><path style="opacity:0.747" fill="#000000" d="M 21.5,11.5 C 21.5,13.8333 21.5,16.1667 21.5,18.5C 19.976,16.5921 18.6426,14.4254 17.5,12C 15.7444,11.7978 14.0777,11.2978 12.5,10.5C 15.7678,9.06379 18.7678,9.39713 21.5,11.5 Z"/></g>
<g><path style="opacity:0.671" fill="#000000" d="M 13.5,21.5 C 12.5,21.5 11.5,21.5 10.5,21.5C 11.492,17.4301 9.99204,15.4301 6,15.5C 2.00796,15.4301 0.507959,17.4301 1.5,21.5C 0.833333,21.5 0.166667,21.5 -0.5,21.5C -0.5,19.1667 -0.5,16.8333 -0.5,14.5C 4.37212,11.5095 8.87212,11.8428 13,15.5C 13.4955,17.4727 13.6621,19.4727 13.5,21.5 Z"/></g>
</svg>
