<?xml version="1.0" encoding="UTF-8"?>
<!DOCTYPE svg PUBLIC "-//W3C//DTD SVG 1.1//EN" "http://www.w3.org/Graphics/SVG/1.1/DTD/svg11.dtd">
<svg xmlns="http://www.w3.org/2000/svg" version="1.1" width="24px" height="24px" style="shape-rendering:geometricPrecision; text-rendering:geometricPrecision; image-rendering:optimizeQuality; fill-rule:evenodd; clip-rule:evenodd" xmlns:xlink="http://www.w3.org/1999/xlink">
<g><path style="opacity:0.911" fill="#000000" d="M 7.5,-0.5 C 9.83333,-0.5 12.1667,-0.5 14.5,-0.5C 16.9717,0.642067 17.9717,2.64207 17.5,5.5C 19.5,5.5 21.5,5.5 23.5,5.5C 23.5,11.1667 23.5,16.8333 23.5,22.5C 22.8333,22.5 22.5,22.8333 22.5,23.5C 15.1667,23.5 7.83333,23.5 0.5,23.5C 0.5,22.8333 0.166667,22.5 -0.5,22.5C -0.5,16.8333 -0.5,11.1667 -0.5,5.5C 1.5,5.5 3.5,5.5 5.5,5.5C 5.60357,3.29719 6.27024,1.29719 7.5,-0.5 Z M 11.5,1.5 C 12.8118,2.14507 13.8118,3.14507 14.5,4.5C 7.33234,6.45803 6.33234,5.45803 11.5,1.5 Z M 1.5,7.5 C 3.49181,7.32846 5.15848,7.99512 6.5,9.5C 9.83333,6.83333 13.1667,6.83333 16.5,9.5C 17.8415,7.99512 19.5082,7.32846 21.5,7.5C 21.6657,11.8461 21.499,16.1794 21,20.5C 14.6667,21.8333 8.33333,21.8333 2,20.5C 1.50098,16.1794 1.33432,11.8461 1.5,7.5 Z"/></g>
</svg>
