<?xml version="1.0" encoding="UTF-8"?>
<!DOCTYPE svg PUBLIC "-//W3C//DTD SVG 1.1//EN" "http://www.w3.org/Graphics/SVG/1.1/DTD/svg11.dtd">
<svg xmlns="http://www.w3.org/2000/svg" version="1.1" width="25px" height="25px" style="shape-rendering:geometricPrecision; text-rendering:geometricPrecision; image-rendering:optimizeQuality; fill-rule:evenodd; clip-rule:evenodd" xmlns:xlink="http://www.w3.org/1999/xlink">
<g><path style="opacity:0.698" fill="#000000" d="M 9.5,-0.5 C 10.8333,-0.5 12.1667,-0.5 13.5,-0.5C 17.1408,2.80494 20.8075,6.13827 24.5,9.5C 24.5,13.8333 24.5,18.1667 24.5,22.5C 23.5,22.8333 22.8333,23.5 22.5,24.5C 15.5,24.5 8.5,24.5 1.5,24.5C 1.15829,23.6618 0.491622,23.3284 -0.5,23.5C -0.5,18.5 -0.5,13.5 -0.5,8.5C 3.45577,6.21188 6.78911,3.21188 9.5,-0.5 Z M 10.5,2.5 C 14.2098,4.7849 17.7098,7.45157 21,10.5C 21.4986,14.1516 21.6653,17.8183 21.5,21.5C 20.1667,21.5 18.8333,21.5 17.5,21.5C 18.8045,11.9451 15.3045,9.27845 7,13.5C 6.50258,16.146 6.33591,18.8127 6.5,21.5C 4.85613,21.7135 3.35613,21.3802 2,20.5C 1.33333,17.5 1.33333,14.5 2,11.5C 5.03787,8.63064 7.87121,5.63064 10.5,2.5 Z M 11.5,13.5 C 14.1717,15.3914 15.1717,18.0581 14.5,21.5C 12.8333,21.5 11.1667,21.5 9.5,21.5C 9.13152,18.4669 9.79818,15.8002 11.5,13.5 Z"/></g>
</svg>
