<?xml version="1.0" encoding="UTF-8"?>
<!DOCTYPE svg PUBLIC "-//W3C//DTD SVG 1.1//EN" "http://www.w3.org/Graphics/SVG/1.1/DTD/svg11.dtd">
<svg xmlns="http://www.w3.org/2000/svg" version="1.1" width="25px" height="24px" style="shape-rendering:geometricPrecision; text-rendering:geometricPrecision; image-rendering:optimizeQuality; fill-rule:evenodd; clip-rule:evenodd" xmlns:xlink="http://www.w3.org/1999/xlink">
<g><path style="opacity:0.77" fill="#000000" d="M 0.5,-0.5 C 5.83333,-0.5 11.1667,-0.5 16.5,-0.5C 19.1846,5.90479 21.8513,12.2381 24.5,18.5C 24.5,19.5 24.5,20.5 24.5,21.5C 23.0048,21.9887 21.6715,22.6554 20.5,23.5C 19.1667,23.5 17.8333,23.5 16.5,23.5C 13.328,9.22294 11.9946,9.22294 12.5,23.5C 8.16667,23.5 3.83333,23.5 -0.5,23.5C -0.5,15.8333 -0.5,8.16667 -0.5,0.5C 0.166667,0.5 0.5,0.166667 0.5,-0.5 Z M 2.5,1.5 C 4.46455,1.94835 4.79789,2.94835 3.5,4.5C 2.61432,3.67504 2.28099,2.67504 2.5,1.5 Z M 7.5,1.5 C 9.46455,1.94835 9.79789,2.94835 8.5,4.5C 7.61432,3.67504 7.28099,2.67504 7.5,1.5 Z M 13.5,1.5 C 14.7759,2.3864 14.7759,3.3864 13.5,4.5C 12.4376,3.57537 12.4376,2.57537 13.5,1.5 Z M 2.5,6.5 C 3.77725,7.69363 4.44392,9.3603 4.5,11.5C 4.16667,13.1667 3.83333,14.8333 3.5,16.5C 2.51298,13.2317 2.17964,9.89838 2.5,6.5 Z M 7.5,6.5 C 8.77725,7.69363 9.44392,9.3603 9.5,11.5C 9.16667,13.1667 8.83333,14.8333 8.5,16.5C 7.51298,13.2317 7.17964,9.89838 7.5,6.5 Z M 14.5,6.5 C 15.3764,6.36912 16.0431,6.70245 16.5,7.5C 17.4067,10.0567 18.4067,12.5567 19.5,15C 18.5509,15.6172 17.7175,15.4506 17,14.5C 15.8644,11.9036 15.031,9.23695 14.5,6.5 Z M 2.5,18.5 C 4.46455,18.9483 4.79789,19.9483 3.5,21.5C 2.61432,20.675 2.28099,19.675 2.5,18.5 Z M 7.5,18.5 C 9.46455,18.9483 9.79789,19.9483 8.5,21.5C 7.61432,20.675 7.28099,19.675 7.5,18.5 Z"/></g>
</svg>
